<svg xmlns="http://www.w3.org/2000/svg" viewBox="0 0 400 300" width="406" height="306" class="illustration styles_illustrationTablet__1DWOa"><g id="_545_road_trip_outline" data-name="#545_road_trip_outline"><rect x="133.5" y="83.32" width="66.32" height="29.71" fill="#ffbc0e"></rect><path d="M199.83,114H133.5a1,1,0,0,1-1-1V83.32a1,1,0,0,1,1-1h66.33a1,1,0,0,1,1,1V113A1,1,0,0,1,199.83,114Zm-65.33-2h64.33V84.32H134.5Z" fill="#093f68"></path><path d="M312.62,205.15H89.14v-37a45.7,45.7,0,0,1,1.32-10.88A48.1,48.1,0,0,1,92.53,151l10.81-26.43,1.68-4.1A12,12,0,0,1,116.09,113H217.9a11.93,11.93,0,0,1,8.56,3.62l7.71,7.91,26.35,27.06a24.72,24.72,0,0,0,17.68,7.46h20a10.56,10.56,0,0,1,10.48,9.43L310,180.27Z" fill="#68e1fd"></path><path d="M312.62,206.15H89.14a1,1,0,0,1-1-1v-37a47,47,0,0,1,1.35-11.12,48.61,48.61,0,0,1,2.11-6.45l12.5-30.54a12.91,12.91,0,0,1,12-8H217.9a13,13,0,0,1,9.28,3.92l34.06,35a23.7,23.7,0,0,0,17,7.16h20a11.55,11.55,0,0,1,10.42,6.61,11,11,0,0,1,1.05,3.71L313.61,205a1,1,0,0,1-.25.78A1,1,0,0,1,312.62,206.15Zm-222.48-2H311.51l-3.79-35.54a9.3,9.3,0,0,0-.87-3.06,9.56,9.56,0,0,0-8.62-5.47h-20a25.69,25.69,0,0,1-18.4-7.76l-34.05-35A11,11,0,0,0,217.9,114H116.09A10.91,10.91,0,0,0,106,120.84L93.46,151.37a46.65,46.65,0,0,0-2,6.19,44.88,44.88,0,0,0-1.29,10.63Z" fill="#093f68"></path><path d="M86,198.49h16.49a0,0,0,0,1,0,0V209a0,0,0,0,1,0,0H86a3.83,3.83,0,0,1-3.83-3.83v-2.85A3.83,3.83,0,0,1,86,198.49Z" fill="#68e1fd"></path><path d="M102.45,210H86a4.83,4.83,0,0,1-4.82-4.83v-2.85A4.83,4.83,0,0,1,86,197.49h16.49a1,1,0,0,1,1,1V209A1,1,0,0,1,102.45,210ZM86,199.49a2.83,2.83,0,0,0-2.82,2.83v2.85A2.83,2.83,0,0,0,86,208h15.49v-8.51Z" fill="#093f68"></path><path d="M297.55,198.49H314a3.83,3.83,0,0,1,3.83,3.83v2.85A3.83,3.83,0,0,1,314,209H297.55a0,0,0,0,1,0,0V198.49A0,0,0,0,1,297.55,198.49Z" fill="#68e1fd"></path><path d="M314,210H297.55a1,1,0,0,1-1-1V198.49a1,1,0,0,1,1-1H314a4.83,4.83,0,0,1,4.82,4.83v2.85A4.83,4.83,0,0,1,314,210Zm-15.49-2H314a2.83,2.83,0,0,0,2.82-2.83v-2.85a2.83,2.83,0,0,0-2.82-2.83H298.55Z" fill="#093f68"></path><circle cx="276.14" cy="207.47" r="25.46" fill="#093f68"></circle><path d="M276.14,233.92a26.46,26.46,0,1,1,26.46-26.45A26.49,26.49,0,0,1,276.14,233.92Zm0-50.91a24.46,24.46,0,1,0,24.46,24.46A24.48,24.48,0,0,0,276.14,183Z" fill="#093f68"></path><circle cx="276.14" cy="207.47" r="12.34" fill="#fff"></circle><path d="M276.14,220.81a13.34,13.34,0,1,1,13.34-13.34A13.36,13.36,0,0,1,276.14,220.81Zm0-24.68a11.34,11.34,0,1,0,11.34,11.34A11.35,11.35,0,0,0,276.14,196.13Z" fill="#093f68"></path><circle cx="121.16" cy="207.47" r="25.46" fill="#093f68"></circle><path d="M121.16,233.92a26.46,26.46,0,1,1,26.46-26.45A26.48,26.48,0,0,1,121.16,233.92Zm0-50.91a24.46,24.46,0,1,0,24.46,24.46A24.48,24.48,0,0,0,121.16,183Z" fill="#093f68"></path><circle cx="121.16" cy="207.47" r="12.34" fill="#fff"></circle><path d="M121.16,220.81a13.34,13.34,0,1,1,13.34-13.34A13.36,13.36,0,0,1,121.16,220.81Zm0-24.68a11.34,11.34,0,1,0,11.34,11.34A11.35,11.35,0,0,0,121.16,196.13Z" fill="#093f68"></path><path d="M164.8,124.56v32.75H90.45A48.66,48.66,0,0,1,92.53,151l10.81-26.43Z" fill="#fff"></path><path d="M164.8,158.31H90.46a1,1,0,0,1-1-1.25,49.58,49.58,0,0,1,2.11-6.45l10.81-26.43a1,1,0,0,1,.93-.62H164.8a1,1,0,0,1,1,1v32.75A1,1,0,0,1,164.8,158.31Zm-73-2h72V125.56H104L93.45,151.37A47.12,47.12,0,0,0,91.76,156.31Z" fill="#093f68"></path><path d="M269,157.31h-92V124.56h57.11l26.35,27.06A24.36,24.36,0,0,0,269,157.31Z" fill="#fff"></path><path d="M269,158.31h-92a1,1,0,0,1-1-1V124.56a1,1,0,0,1,1-1h57.11a1,1,0,0,1,.71.3l26.35,27.06a23.57,23.57,0,0,0,8.16,5.46,1,1,0,0,1-.37,1.93Zm-91-2H264.8a25.47,25.47,0,0,1-5-4l-26.05-26.75H178.06Z" fill="#093f68"></path><path d="M243.61,199.49H156a1,1,0,1,1,0-2h87.57a1,1,0,0,1,0,2Z" fill="#093f68"></path><path d="M170.29,195.29a1,1,0,0,1-1-1v-31.7a1,1,0,0,1,2,0v31.7A1,1,0,0,1,170.29,195.29Z" fill="#093f68"></path><path d="M194,168.84H183.19a1,1,0,0,1,0-2H194a1,1,0,0,1,0,2Z" fill="#093f68"></path><path d="M157.39,168.84H146.62a1,1,0,0,1,0-2h10.77a1,1,0,0,1,0,2Z" fill="#093f68"></path><rect x="83.36" y="165.21" width="5.78" height="16.81" fill="#ffbc0e"></rect><path d="M89.14,183H83.36a1,1,0,0,1-1-1V165.21a1,1,0,0,1,1-1h5.78a1,1,0,0,1,1,1V182A1,1,0,0,1,89.14,183Zm-4.78-2h3.78V166.21H84.36Z" fill="#093f68"></path><path d="M310,180.27H301.6a4.15,4.15,0,0,1-4.15-4.15v-6.86a4.15,4.15,0,0,1,4.15-4.15h6.15a10.49,10.49,0,0,1,1,3.4Z" fill="#ffbc0e"></path><path d="M310,181.27H301.6a5.16,5.16,0,0,1-5.15-5.15v-6.86a5.16,5.16,0,0,1,5.15-5.15h6.15a1,1,0,0,1,.9.57,11.14,11.14,0,0,1,1.05,3.72L311,180.17a1,1,0,0,1-.25.77A1,1,0,0,1,310,181.27Zm-8.37-15.16a3.15,3.15,0,0,0-3.15,3.15v6.86a3.15,3.15,0,0,0,3.15,3.15h7.26l-1.14-10.66a10,10,0,0,0-.62-2.5Z" fill="#093f68"></path><path d="M110.28,151.22a1,1,0,0,1-.8-.4,1,1,0,0,1,.2-1.4l25.22-18.91a1,1,0,0,1,1.4.2,1,1,0,0,1-.2,1.4L110.88,151A1,1,0,0,1,110.28,151.22Z" fill="#dfeaef"></path><path d="M139.44,148.16a1,1,0,0,1-.63-1.78l17.95-14.71a1,1,0,0,1,1.41.14,1,1,0,0,1-.14,1.41l-17.95,14.71A1,1,0,0,1,139.44,148.16Z" fill="#dfeaef"></path><path d="M188.57,151.22a1,1,0,0,1-.74-.32,1,1,0,0,1,.07-1.42L211,128.29a1,1,0,0,1,1.35,1.48L189.25,151A1,1,0,0,1,188.57,151.22Z" fill="#dfeaef"></path><path d="M219.3,148.16a1,1,0,0,1-.7-.3,1,1,0,0,1,0-1.41l11-11a1,1,0,0,1,1.41,0,1,1,0,0,1,0,1.41l-11,11A1,1,0,0,1,219.3,148.16Z" fill="#dfeaef"></path><path d="M211.68,114H121a1,1,0,0,1-1-1.31l4.32-13.25a1,1,0,0,1,1-.69h82a1,1,0,0,1,.95.69l4.32,13.25a1,1,0,0,1-.14.9A1,1,0,0,1,211.68,114Zm-89.28-2h87.91l-3.67-11.25H126.07Z" fill="#093f68"></path><rect x="146.45" y="67.08" width="43.48" height="16.24" fill="#f56132"></rect><path d="M189.92,84.32H146.45a1,1,0,0,1-1-1V67.08a1,1,0,0,1,1-1h43.47a1,1,0,0,1,1,1V83.32A1,1,0,0,1,189.92,84.32Zm-42.47-2h41.47V68.08H147.45Z" fill="#093f68"></path><path d="M147.85,114a1,1,0,0,1-.29,0,1,1,0,0,1-.67-1.24l13.66-46a1,1,0,0,1,1.24-.67,1,1,0,0,1,.68,1.24l-13.66,46A1,1,0,0,1,147.85,114Z" fill="#093f68"></path><path d="M189.15,114a1,1,0,0,1-1-.72l-13.32-46a1,1,0,0,1,.68-1.23,1,1,0,0,1,1.24.68l13.32,46a1,1,0,0,1-.68,1.24A.86.86,0,0,1,189.15,114Z" fill="#093f68"></path><path d="M143.56,88.35h-5.08a1,1,0,0,1,0-2h5.08a1,1,0,0,1,0,2Z" fill="#093f68"></path><path d="M153,71.89h-3.15a1,1,0,0,1,0-2H153a1,1,0,0,1,0,2Z" fill="#093f68"></path></g></svg>